PathFileType	4	(X/Y/Z)	Patient4_TMGait_0pt2_02_right_19.trc.trc
DataRate	CameraRate	NumFrames	NumMarkers	Units	OrigDataRate	OrigDataStartFrame	OrigNumFrames
45.307443365696	45.307443365696	4	33	mm	45.307443365696	1	       141
Frame#	Time	R.Midfoot.Superior			Sacral			L.Shoulder			Chest			R.Shoulder			Neck			R.ASIS			L.ASIS			R.Thigh.Superior			R.Thigh.Lateral			R.Thigh.Inferior			R.Patella			L.Thigh.Superior			L.Thigh.Lateral			L.Thigh.Inferior			L.Patella			L.Shank.Superior			L.Shank.Lateral			L.Shank.Inferior			R.Shank.Superior			R.Shank.Lateral			R.Shank.Inferior			R.Heel			R.Midfoot.Lateral			R.Toe			L.Heel			L.Midfoot.Lateral			L.Midfoot.Superior			L.Toe			L.Elbow			L.Wrist			R.Elbow			R.Wrist			
		X1	Y1	Z1	X2	Y2	Z2	X3	Y3	Z3	X4	Y4	Z4	X5	Y5	Z5	X6	Y6	Z6	X7	Y7	Z7	X8	Y8	Z8	X9	Y9	Z9	X10	Y10	Z10	X11	Y11	Z11	X12	Y12	Z12	X13	Y13	Z13	X14	Y14	Z14	X15	Y15	Z15	X16	Y16	Z16	X17	Y17	Z17	X18	Y18	Z18	X19	Y19	Z19	X20	Y20	Z20	X21	Y21	Z21	X22	Y22	Z22	X23	Y23	Z23	X24	Y24	Z24	X25	Y25	Z25	X26	Y26	Z26	X27	Y27	Z27	X28	Y28	Z28	X29	Y29	Z29	X30	Y30	Z30	X31	Y31	Z31	X32	Y32	Z32	X33	Y33	Z33	

1	42.050000000000	954.202846460053	128.884645938694	596.538525120600	909.336568882835	1003.065509561144	425.000083532978	1064.568608130404	1427.237934615237	216.495515707060	1181.554415754599	1363.389564359371	369.545782143387	1115.428939532520	1443.961813536656	545.939288929066	1057.487377842913	1494.197774390249	372.530082363011	1145.178085696160	941.448961689316	525.972606001817	1113.203827147673	958.904134798558	253.743267663403	1187.980546606606	739.041351165063	505.079925271951	1115.820948236381	630.382942340051	579.560835613399	1192.628949855975	570.661253613821	501.361265145292	1187.449343307998	463.125025783794	525.473480161115	1177.491482725983	757.633909911120	290.745537544757	1101.629685037054	630.093713523353	233.999565605390	1194.160903335268	564.221860287398	296.798852716663	1199.964356616326	493.176596853270	306.908497256613	1173.189397668003	417.041612292873	302.398761333320	1082.984205863164	301.254706338631	256.122619939336	1134.492780758749	192.526261800125	330.139572374316	1111.525387628888	397.528813219513	540.871269216687	997.059570082726	358.978823824453	613.518516583240	982.237852107349	246.993437254135	569.513048654606	780.909547499629	171.004370030308	557.622341017281	846.990313220227	122.128783911682	632.046943724533	1029.435240507217	33.590631679542	627.015009205940	1004.847412918260	38.455005865223	374.823351770636	1077.600380455159	35.292538774384	293.057842043455	1160.219095658679	97.757288698396	318.839079300761	1288.128159183877	49.996575819522	289.129580360761	1078.125079804431	1074.799765369861	96.897555316577	1174.689652977800	830.776193761659	103.616589333549	1248.574180525989	1118.479093499498	658.437743276795	1486.651009442356	1011.531930398808	625.473216582262	
2	42.072071428571	958.310614421916	136.938683897731	593.660786392092	908.866318243481	999.784264955637	421.111138844157	1063.650143218598	1425.999132005120	215.701467681717	1179.333474518782	1362.147853729855	369.655576313971	1111.112097037043	1440.976412324723	546.091697290585	1055.270573359640	1492.218636761932	372.042760195000	1145.051738566713	939.575702906113	523.139370205865	1114.219603805072	957.741301489675	250.829919067392	1195.065861602875	741.416358388754	499.535051862619	1128.414525907052	630.748342230242	574.406087999752	1206.390338040618	573.596729980758	495.181880225047	1204.244398302093	464.517252368172	519.628235946225	1180.279872514852	756.450501309105	288.316176540745	1105.282707587686	628.200022297026	232.408522311946	1197.729601806315	562.771275275126	296.380225550486	1203.906481312084	491.393377551913	306.696127397108	1175.497077185749	414.964186977592	302.327368523878	1083.649944097980	300.635498652987	255.659744009618	1132.365141164163	191.389887487252	330.352156206826	1126.229726949112	399.279191425652	536.052710461532	1009.796236499333	365.728417566367	608.030868291495	991.143841339097	254.095825396722	565.645362835739	787.991517709651	187.890893332807	553.127619285200	850.850578665322	136.401254696579	628.568028073543	1027.385354450264	36.084481155909	625.769875494807	1000.419130238412	38.481682974172	374.760523568670	1073.198704427237	35.308161975889	293.040817172949	1155.964696846443	97.598714028870	319.058212976655	1283.774942965624	49.751435561534	289.163678772589	1089.676984036970	1075.849339816440	93.931582340322	1199.489658307366	838.815825831952	100.737167916618	1226.072879443998	1108.460113573786	657.732189360272	1447.898463257320	978.669854578298	630.468260357830	
3	42.094142857143	963.485925523411	144.406793873404	590.753158158250	908.476305831869	996.387592747169	417.171290850074	1062.820631845926	1424.766119074885	214.990323186472	1177.109759933315	1360.845066746074	369.893209343664	1106.659653084295	1437.814667463235	546.353372397316	1053.041936026941	1490.175484587609	371.670884824578	1145.003507151222	937.712534581115	520.304080602590	1115.371284710205	956.556825809110	247.879653766773	1202.089976387910	743.762714375892	494.103112292940	1140.925238110077	631.173029620243	569.405709805869	1220.040334503569	576.590806853930	489.155478105800	1220.986906740423	466.057457471812	513.962795092970	1183.140001955369	755.204578878569	285.938488141685	1109.002869562354	626.236393532989	230.826974576791	1201.317949572637	561.251804119823	296.005535833569	1207.841628469184	489.524312037346	306.551722372003	1177.776066921470	412.811538357180	302.297106373237	1084.254925790463	299.985120125291	255.222188669883	1130.128205918805	190.213369260897	330.578283701493	1141.055937194574	401.003598951438	531.349014623221	1022.713769051873	372.011593425213	602.636380984726	1000.633112986345	260.620808552065	561.791223194313	795.706442814146	203.142679026248	548.606741538419	855.699289413707	149.399801196081	625.057218079460	1027.115625999973	38.513998771324	624.489391461731	995.825229463330	38.512554162894	374.697813468559	1068.635449756035	35.328032043775	293.023363434399	1151.556952417982	97.433914309961	319.285981250206	1279.263301955187	49.479590589439	289.202205904356	1101.574887601828	1077.171284179643	90.902038956294	1225.160882121770	847.823383867246	97.865390137314	1202.662411512059	1098.555266944910	657.227861629313	1406.755896843252	945.917640729978	635.409223351583	
4	42.116214285714	970.150981131500	150.710348950908	587.968781611031	908.202460829449	993.013852392893	413.296466940933	1062.192837664056	1423.629414375425	214.441061031850	1174.983450345495	1359.542088809425	370.330068106187	1102.181560923741	1434.577586790272	546.767086824085	1050.904986371170	1488.160337050096	371.483248870044	1145.014427767110	935.949907262099	517.594606933175	1116.670401151788	955.420565660777	245.018608605849	1208.717336565386	745.999673239791	489.064420699744	1152.773375540143	631.690857723747	564.845836094550	1232.941134023921	579.562897970015	483.613447553258	1236.949067707235	467.784403076919	508.809294178918	1185.954717634119	753.929553800168	283.731893918359	1112.615085491171	624.276672381706	229.321261664970	1204.724051959310	559.705929953539	295.705545291670	1211.535703262732	487.625121791972	306.500924167980	1179.856839367263	410.658333655058	302.318752828453	1084.695268094763	299.324599485381	254.833036465237	1127.787334399338	189.037865763267	330.809413017580	1155.469826717208	402.657248825271	527.043481628738	1035.419262977386	377.352480840635	597.634455377959	1010.691047214266	266.043199753434	558.166145960644	804.227022661149	215.347030995431	544.295596380998	861.976762475180	159.988423919313	621.700143879338	1029.595352655398	40.772130677581	623.252539487006	991.161718475368	38.546889336479	374.636184636172	1064.007023760600	35.351509845790	293.004886814866	1147.087658040664	97.267094290044	319.513263874586	1274.689381027860	49.184826104270	289.243276265725	1113.546274785052	1078.889111773313	87.903135527179	1251.075703772839	857.927960410417	95.131012215969	1178.793581228397	1089.287009636826	656.997687859226	1363.838584943878	914.764637005100	640.088397646884	
